# xmcd
#
# Track frame offsets:
#	150
#	13808
#	32461
#	49168
#	62560
#	77436
#	95687
#	113645
#	128143
#	147243
#	163363
#
# Disc length: 2417 seconds
#
# Revision: 1
# Processed by: cddbd v1.5.2PL0 Copyright (c) Steve Scherf et al.
# Submitted via: audiograbber 1.82.02
#
DISCID=8d096f0b
DTITLE=Shanklin Road - Don't Forget About The Rain
DYEAR=2003
DGENRE=Country
TTITLE0=My Own Man
TTITLE1=Run Girl Run
TTITLE2=Don't Forget About The Rain
TTITLE3=Country Song
TTITLE4=Cheater's Hill
TTITLE5=Life Through A Bottle
TTITLE6=Who Can
TTITLE7=Our Love Will Survive
TTITLE8=Where Is God
TTITLE9=Counting Raindrops
TTITLE10=The Place That I Call Home (The New Brunswick Song)
EXTD=
EXTT0=
EXTT1=
EXTT2=
EXTT3=
EXTT4=
EXTT5=
EXTT6=
EXTT7=
EXTT8=
EXTT9=
EXTT10=
PLAYORDER=
